<svg width="30" height="30" viewBox="0 0 30 30" fill="none" xmlns="http://www.w3.org/2000/svg">
<path fill-rule="evenodd" clip-rule="evenodd" d="M15 30C23.2843 30 30 23.2843 30 15C30 6.71573 23.2843 0 15 0C6.71573 0 0 6.71573 0 15C0 23.2843 6.71573 30 15 30ZM11.9805 9.71084V10.4446C11.0501 10.4728 10.4805 10.5725 10.046 10.9333C9.44487 11.4326 9.28608 12.2771 8.96908 13.963L8.96747 13.9716L8.4253 16.8631L8.42289 16.876C7.97919 19.2472 7.75708 20.4342 8.40651 21.2164C9.05711 22 10.2672 22 12.6889 22H16.6937C19.1147 22 20.3255 22 20.9761 21.2164C21.626 20.4328 21.4034 19.2429 20.9573 16.8631L20.4152 13.9716C20.0978 12.2793 19.9388 11.4335 19.3366 10.9333C18.9022 10.5725 18.3325 10.4728 17.4022 10.4446V9.71084C17.4022 8.99188 17.1166 8.30237 16.6082 7.79399C16.0998 7.28561 15.4103 7 14.6913 7C13.9724 7 13.2829 7.28561 12.7745 7.79399C12.2661 8.30237 11.9805 8.99188 11.9805 9.71084ZM13.5412 8.56073C13.2362 8.86576 13.0648 9.27947 13.0648 9.71084V10.4337H16.3178V9.71084C16.3178 9.27947 16.1465 8.86576 15.8414 8.56073C15.5364 8.2557 15.1227 8.08434 14.6913 8.08434C14.26 8.08434 13.8462 8.2557 13.5412 8.56073Z" fill="#EE626B"/>
</svg>
