<svg width="133" height="96" viewBox="0 0 133 96" fill="none" xmlns="http://www.w3.org/2000/svg">
<path d="M33.9092 96C24.8092 96 17.0352 92.85 10.5872 86.55C4.13918 80.25 0.91318 72.55 0.90918 63.45C0.90918 55.65 3.25918 48.7 7.95918 42.6C12.6592 36.5 18.8092 32.6 26.4092 30.9C28.9092 21.7 33.9092 14.25 41.4092 8.55C48.9092 2.85 57.4092 0 66.9092 0C78.6092 0 88.5352 4.076 96.6872 12.228C104.839 20.38 108.913 30.304 108.909 42C115.809 42.8 121.535 45.776 126.087 50.928C130.639 56.08 132.913 62.104 132.909 69C132.909 76.5 130.285 82.876 125.037 88.128C119.789 93.38 113.413 96.004 105.909 96H33.9092ZM33.9092 84H105.909C110.109 84 113.659 82.55 116.559 79.65C119.459 76.75 120.909 73.2 120.909 69C120.909 64.8 119.459 61.25 116.559 58.35C113.659 55.45 110.109 54 105.909 54H96.9092V42C96.9092 33.7 93.9832 26.624 88.1312 20.772C82.2792 14.92 75.2052 11.996 66.9092 12C58.6132 12.004 51.5392 14.93 45.6872 20.778C39.8352 26.626 36.9092 33.7 36.9092 42H33.9092C28.1092 42 23.1592 44.05 19.0592 48.15C14.9592 52.25 12.9092 57.2 12.9092 63C12.9092 68.8 14.9592 73.75 19.0592 77.85C23.1592 81.95 28.1092 84 33.9092 84Z" fill="#0271F7"/>
</svg>
