<svg width="30" height="30" viewBox="0 0 30 30" fill="none" xmlns="http://www.w3.org/2000/svg">
<path fill-rule="evenodd" clip-rule="evenodd" d="M15 30C23.2843 30 30 23.2843 30 15C30 6.71573 23.2843 0 15 0C6.71573 0 0 6.71573 0 15C0 23.2843 6.71573 30 15 30ZM21.7367 15.4474C21.8136 15.3108 21.8537 15.1567 21.8534 15C21.8537 14.8433 21.8136 14.6892 21.7367 14.5526C21.6599 14.416 21.549 14.3017 21.4149 14.2206L13.103 9.13586C12.9629 9.05005 12.8024 9.0032 12.6381 9.00016C12.4738 8.99712 12.3117 9.03799 12.1684 9.11855C12.0266 9.19786 11.9084 9.31353 11.8261 9.45365C11.7438 9.59378 11.7002 9.7533 11.7 9.91582V20.0842C11.7002 20.2467 11.7438 20.4062 11.8261 20.5463C11.9084 20.6865 12.0266 20.8021 12.1684 20.8814C12.3117 20.962 12.4738 21.0029 12.6381 20.9998C12.8024 20.9968 12.9629 20.95 13.103 20.8641L21.4149 15.7794C21.549 15.6983 21.6599 15.584 21.7367 15.4474Z" fill="#EE626B"/>
</svg>
