<svg width="79" height="96" viewBox="0 0 79 96" fill="none" xmlns="http://www.w3.org/2000/svg">
<path d="M4.36364 0H74.1818C75.3391 0 76.449 0.459739 77.2674 1.27808C78.0857 2.09642 78.5455 3.20633 78.5455 4.36364V21.8182C78.5455 22.9755 78.0857 24.0854 77.2674 24.9037C76.449 25.7221 75.3391 26.1818 74.1818 26.1818H4.36364C3.20633 26.1818 2.09642 25.7221 1.27808 24.9037C0.459739 24.0854 0 22.9755 0 21.8182V4.36364C0 3.20633 0.459739 2.09642 1.27808 1.27808C2.09642 0.459739 3.20633 0 4.36364 0ZM4.36364 34.9091H74.1818C75.3391 34.9091 76.449 35.3688 77.2674 36.1872C78.0857 37.0055 78.5455 38.1154 78.5455 39.2727V56.7273C78.5455 57.8846 78.0857 58.9945 77.2674 59.8128C76.449 60.6312 75.3391 61.0909 74.1818 61.0909H4.36364C3.20633 61.0909 2.09642 60.6312 1.27808 59.8128C0.459739 58.9945 0 57.8846 0 56.7273V39.2727C0 38.1154 0.459739 37.0055 1.27808 36.1872C2.09642 35.3688 3.20633 34.9091 4.36364 34.9091ZM4.36364 69.8182H74.1818C75.3391 69.8182 76.449 70.2779 77.2674 71.0963C78.0857 71.9146 78.5455 73.0245 78.5455 74.1818V91.6364C78.5455 92.7937 78.0857 93.9036 77.2674 94.7219C76.449 95.5403 75.3391 96 74.1818 96H4.36364C3.20633 96 2.09642 95.5403 1.27808 94.7219C0.459739 93.9036 0 92.7937 0 91.6364V74.1818C0 73.0245 0.459739 71.9146 1.27808 71.0963C2.09642 70.2779 3.20633 69.8182 4.36364 69.8182ZM26.1818 17.4545H30.5455V8.72727H26.1818V17.4545ZM26.1818 52.3636H30.5455V43.6364H26.1818V52.3636ZM26.1818 87.2727H30.5455V78.5455H26.1818V87.2727ZM8.72727 8.72727V17.4545H17.4545V8.72727H8.72727ZM8.72727 43.6364V52.3636H17.4545V43.6364H8.72727ZM8.72727 78.5455V87.2727H17.4545V78.5455H8.72727Z" fill="#0271F7"/>
</svg>
